# xmcd
#
# Track frame offsets:
#	150
#	13847
#	26319
#	41870
#	53710
#	66245
#	82412
#	94415
#
# Disc length: 1457 seconds
#
# Revision: 0
# Processed by: cddbd v1.5.2PL0 Copyright (c) Steve Scherf et al.
# Submitted via: FairStars CD Ripper 1.90
#
DISCID=6c05af08
DTITLE=Dave Lagness - Beer Bottle Brown
DYEAR=1990
DGENRE=Country
TTITLE0=What I Wouldn't Give
TTITLE1=Gimme' Back My Heart
TTITLE2=Beer Bottle Brown
TTITLE3=Lakeside Hide-A-Way
TTITLE4=She Believed
TTITLE5=Last Broken Heart
TTITLE6=Love At First Sight Kind Of Girl
TTITLE7=No One Loves Here Anymore
EXTD=
EXTT0=
EXTT1=
EXTT2=
EXTT3=
EXTT4=
EXTT5=
EXTT6=
EXTT7=
PLAYORDER=
